<?xml version="1.0" standalone="no"?>
<!DOCTYPE svg PUBLIC "-//W3C//DTD SVG 20010904//EN"
 "http://www.w3.org/TR/2001/REC-SVG-20010904/DTD/svg10.dtd">
<svg version="1.0" xmlns="http://www.w3.org/2000/svg"
 width="558.000000pt" height="558.000000pt" viewBox="0 0 558.000000 558.000000"
 preserveAspectRatio="xMidYMid meet">
<metadata>
Created by potrace 1.14, written by Peter Selinger 2001-2017
</metadata>
<g transform="translate(0.000000,558.000000) scale(0.100000,-0.100000)"
fill="#000000" stroke="none">
<path d="M2747 5563 c-1 -1 -49 -4 -107 -7 -58 -3 -116 -8 -130 -11 -14 -2
-50 -6 -80 -9 -30 -3 -66 -8 -80 -11 -23 -5 -61 -12 -115 -20 -11 -2 -20 -4
-20 -5 0 -2 -18 -6 -62 -14 -18 -3 -43 -10 -57 -16 -15 -5 -26 -7 -26 -4 0 4
-7 1 -15 -6 -8 -7 -15 -10 -15 -6 0 3 -16 0 -35 -8 -19 -8 -35 -12 -35 -9 0 3
-7 0 -15 -7 -8 -7 -15 -9 -15 -4 0 4 -5 3 -12 -4 -7 -7 -19 -12 -28 -12 -16 0
-223 -80 -272 -106 -15 -8 -30 -13 -32 -12 -2 2 -13 -6 -25 -16 -12 -11 -21
-16 -21 -12 0 4 -13 -2 -29 -13 -15 -11 -31 -18 -35 -14 -3 3 -6 1 -6 -6 0 -7
-4 -9 -10 -6 -5 3 -10 3 -10 -2 0 -4 -29 -24 -65 -43 -36 -19 -65 -38 -65 -42
0 -5 -5 -8 -10 -8 -13 0 -91 -49 -106 -66 -6 -7 -16 -14 -23 -16 -8 -2 -23
-12 -36 -23 -40 -37 -65 -55 -65 -47 0 4 -14 -9 -31 -28 -17 -19 -28 -28 -23
-20 9 16 -47 -34 -158 -142 -39 -38 -75 -68 -81 -68 -5 0 -8 -3 -5 -6 3 -3
-10 -22 -31 -43 -63 -66 -119 -131 -113 -131 3 0 -6 -9 -19 -21 -13 -11 -24
-25 -24 -29 0 -5 -9 -16 -20 -24 -11 -9 -16 -16 -12 -16 4 0 -4 -12 -18 -27
-14 -15 -25 -34 -25 -41 0 -7 -7 -15 -15 -18 -8 -4 -15 -12 -15 -19 0 -7 -7
-16 -16 -19 -8 -3 -13 -10 -10 -14 3 -5 -4 -19 -15 -30 -11 -12 -17 -22 -14
-22 4 0 0 -7 -7 -15 -26 -29 -38 -45 -38 -50 -1 -15 -15 -43 -34 -63 -12 -13
-21 -27 -20 -30 2 -16 -9 -42 -18 -42 -5 0 -6 -4 -3 -10 3 -5 1 -10 -5 -10 -6
0 -8 -4 -5 -10 3 -5 1 -10 -6 -10 -7 0 -9 -3 -6 -6 4 -4 -2 -19 -12 -33 -10
-14 -20 -30 -21 -36 -2 -5 -5 -18 -8 -27 -2 -10 -9 -18 -14 -18 -5 0 -7 -4 -4
-8 3 -5 -6 -32 -20 -61 -14 -29 -27 -61 -29 -73 -2 -11 -9 -26 -16 -34 -6 -8
-9 -14 -5 -14 3 0 -6 -32 -20 -71 -14 -39 -27 -79 -30 -90 -2 -10 -7 -29 -10
-41 -3 -13 -7 -30 -9 -38 -2 -8 -4 -15 -6 -15 -1 0 -3 -9 -5 -20 -1 -11 -5
-31 -9 -45 -12 -47 -26 -127 -41 -225 -15 -101 -26 -269 -26 -390 0 -116 12
-285 25 -360 3 -16 8 -48 12 -70 6 -42 11 -73 20 -115 13 -60 15 -71 21 -93 3
-12 8 -35 11 -52 3 -16 9 -38 14 -47 5 -10 7 -18 4 -18 -3 0 1 -13 10 -30 9
-16 13 -30 10 -30 -3 0 6 -29 19 -64 14 -35 22 -67 19 -70 -4 -3 -1 -6 5 -6 7
0 11 -3 10 -7 -1 -5 3 -18 10 -30 7 -13 10 -23 6 -23 -3 0 1 -11 10 -25 9 -14
14 -25 10 -25 -4 0 -1 -7 6 -15 7 -8 9 -15 4 -15 -5 0 -3 -4 4 -8 7 -5 15 -19
17 -33 3 -13 9 -25 15 -27 6 -2 8 -8 4 -13 -3 -5 0 -9 5 -9 6 0 10 -3 10 -7
-3 -16 23 -73 33 -73 6 0 8 -6 5 -14 -3 -8 1 -17 9 -20 9 -3 12 -10 9 -16 -3
-5 -1 -10 5 -10 6 0 8 -4 5 -10 -3 -5 -1 -10 4 -10 6 0 11 -6 11 -14 0 -7 7
-19 15 -26 8 -7 13 -16 10 -20 -3 -4 2 -11 11 -14 8 -3 12 -10 9 -16 -3 -5 -1
-10 5 -10 6 0 9 -4 6 -9 -3 -5 1 -12 10 -15 8 -3 13 -10 10 -15 -4 -5 -3 -11
1 -13 5 -1 28 -32 52 -68 25 -36 51 -69 58 -73 7 -4 13 -15 13 -23 0 -8 7 -17
15 -20 8 -4 15 -12 15 -20 0 -7 10 -20 22 -28 12 -9 18 -16 13 -16 -5 0 6 -12
23 -26 18 -15 32 -31 32 -37 0 -6 29 -38 65 -72 36 -35 65 -68 65 -74 0 -7 4
-10 8 -7 5 3 15 -5 22 -18 7 -14 21 -27 32 -29 11 -3 17 -10 13 -17 -3 -6 -2
-9 2 -8 5 2 27 -15 48 -37 21 -22 35 -33 31 -25 -4 8 3 3 16 -13 13 -15 28
-27 34 -27 6 0 20 -10 32 -22 28 -31 56 -54 60 -50 2 2 15 -9 29 -25 14 -15
22 -21 18 -13 -5 9 1 7 13 -5 37 -35 50 -44 56 -38 3 3 8 -2 12 -11 3 -9 10
-13 15 -10 5 3 9 0 9 -5 0 -6 7 -11 15 -11 8 0 15 -4 15 -10 0 -5 7 -10 15
-10 8 0 15 -5 15 -11 0 -5 5 -7 10 -4 6 3 13 -1 16 -9 3 -9 10 -13 15 -10 5 3
9 0 9 -6 0 -6 4 -8 10 -5 5 3 10 1 10 -4 0 -6 6 -11 14 -11 8 0 22 -7 30 -16
9 -8 16 -12 16 -7 0 4 7 -1 15 -11 8 -11 15 -16 15 -12 0 4 20 -4 44 -18 24
-14 46 -22 50 -19 3 3 6 0 6 -7 0 -7 3 -10 7 -7 3 4 15 -1 26 -10 10 -10 20
-16 21 -15 1 5 51 -15 89 -35 15 -8 27 -12 27 -8 0 3 11 -2 25 -11 14 -9 25
-13 25 -9 0 4 7 2 15 -5 8 -7 15 -9 15 -5 0 4 6 3 13 -2 16 -13 73 -33 112
-40 17 -3 33 -10 37 -16 4 -6 10 -9 13 -5 4 4 24 0 46 -7 22 -8 41 -14 44 -15
3 0 6 0 8 -1 1 0 13 -2 27 -5 14 -2 32 -7 40 -11 8 -3 21 -5 29 -4 7 1 20 -1
30 -5 15 -6 25 -8 89 -18 15 -3 27 -5 27 -6 0 -2 12 -3 125 -15 41 -4 91 -9
110 -11 51 -5 314 -4 395 1 73 5 114 9 178 19 20 3 52 8 70 11 17 2 43 7 57
10 14 2 50 10 80 16 30 6 76 17 103 24 26 8 47 12 47 10 0 -2 12 2 26 10 15 7
33 11 40 8 8 -3 14 0 14 7 0 6 6 10 12 8 7 -3 24 1 37 8 14 7 28 11 33 8 4 -3
8 0 8 7 0 7 3 10 6 6 4 -3 19 0 35 9 16 8 29 12 29 9 0 -3 11 2 25 11 13 8 29
13 35 9 5 -3 10 -1 10 5 0 6 5 8 10 5 6 -3 10 -1 10 5 0 6 5 8 10 5 6 -3 10
-1 10 4 0 6 3 10 8 9 4 -1 29 8 56 20 27 12 51 22 53 22 2 0 11 7 20 15 8 8
19 13 24 10 5 -4 9 -1 9 6 0 7 3 9 6 6 4 -4 19 2 34 13 15 11 30 17 34 13 3
-3 6 -1 6 5 0 7 7 12 15 12 8 0 15 4 15 10 0 5 3 9 8 8 12 -3 62 24 62 34 0 4
7 8 15 8 8 0 15 5 15 11 0 5 4 8 9 5 4 -3 16 3 26 14 10 11 21 17 25 15 4 -3
11 2 14 11 4 9 9 14 13 11 3 -4 14 3 24 15 11 11 19 17 19 12 0 -5 7 0 15 10
8 11 15 17 15 13 0 -6 26 13 55 40 8 7 16 13 20 13 4 0 12 6 19 12 7 7 35 31
62 53 27 22 63 54 81 72 18 18 33 29 33 25 0 -4 8 5 18 21 10 15 22 24 25 20
4 -3 7 -1 7 4 0 6 30 43 68 81 113 117 158 166 142 157 -8 -4 -4 3 10 16 14
14 32 36 40 49 8 13 23 32 33 42 9 10 14 18 11 18 -3 0 2 7 11 16 19 19 85
118 104 157 8 15 18 27 23 27 4 0 8 4 8 10 0 5 13 31 29 59 16 27 27 52 24 55
-4 3 0 6 7 6 7 0 11 3 7 6 -3 4 1 13 9 21 8 8 12 19 9 24 -4 5 -1 9 5 9 6 0 9
4 6 9 -4 5 -3 11 1 13 20 8 162 358 146 358 -3 0 -1 6 5 13 6 7 13 24 16 37 3
14 17 68 31 120 14 52 27 111 30 130 3 19 9 53 14 74 6 22 8 43 5 47 -2 4 0
10 4 13 5 3 10 22 11 43 1 21 4 54 6 73 14 115 25 440 15 440 -3 0 -6 26 -7
58 -1 31 -5 73 -7 92 -3 19 -8 55 -10 80 -8 66 -14 112 -22 140 -3 14 -7 37
-8 53 0 15 -5 27 -9 27 -5 0 -5 9 -2 20 3 11 3 20 -2 20 -8 0 -13 23 -16 68 0
6 -3 12 -7 12 -4 0 -7 6 -8 13 -4 39 -11 67 -21 86 -7 11 -9 21 -5 21 3 0 1 7
-6 15 -7 8 -10 15 -7 15 3 0 -5 27 -18 59 -13 33 -20 62 -17 65 3 3 0 6 -6 6
-7 0 -12 9 -12 19 0 11 -5 23 -10 26 -6 4 -8 10 -5 15 3 5 1 11 -5 15 -6 4 -8
11 -5 16 4 5 1 9 -5 9 -6 0 -8 5 -5 10 3 6 1 10 -4 10 -6 0 -11 9 -11 19 0 11
-5 23 -10 26 -6 4 -8 11 -5 16 4 5 1 9 -6 9 -7 0 -9 3 -6 7 4 3 0 15 -10 25
-9 10 -13 18 -9 18 4 0 0 7 -8 16 -9 8 -14 20 -11 25 4 5 1 9 -6 9 -7 0 -9 3
-6 7 4 3 -5 22 -20 41 -15 20 -20 32 -12 27 8 -4 4 2 -8 14 -21 19 -24 26 -23
46 0 5 -11 20 -37 50 -7 7 -13 18 -13 24 0 6 -5 11 -12 11 -6 0 -8 3 -5 7 4 3
-1 12 -11 20 -11 10 -12 12 -2 8 8 -4 4 3 -10 14 -14 11 -21 21 -17 21 8 0 -3
15 -38 52 -11 11 -13 17 -5 13 8 -5 0 6 -17 24 -18 18 -33 39 -33 47 0 9 -4
12 -10 9 -5 -3 -10 -1 -10 6 0 7 -7 19 -15 28 -8 9 -30 33 -50 54 -20 20 -33
37 -30 37 3 0 -23 28 -57 63 -35 34 -62 65 -60 70 1 4 -1 6 -6 5 -4 -2 -33 23
-65 56 -31 32 -57 56 -57 53 0 -4 -13 6 -29 21 -56 52 -91 82 -96 82 -7 0 -31
19 -53 43 -9 9 -22 17 -28 17 -7 0 -15 7 -18 16 -3 8 -10 12 -16 9 -5 -3 -10
-1 -10 4 0 6 -7 11 -15 11 -9 0 -18 7 -21 15 -4 8 -10 12 -15 9 -5 -3 -9 0 -9
5 0 6 -5 11 -10 11 -6 0 -20 9 -32 20 -12 11 -28 20 -35 20 -7 0 -13 5 -13 11
0 5 -4 7 -10 4 -5 -3 -10 -2 -10 3 0 5 -22 19 -50 32 -27 13 -50 27 -50 32 0
4 -9 8 -20 8 -11 0 -20 5 -20 11 0 5 -4 8 -9 5 -5 -3 -14 1 -21 9 -7 8 -16 13
-20 10 -5 -3 -15 1 -23 9 -8 8 -17 12 -21 9 -3 -4 -6 -1 -6 6 0 7 -4 9 -10 6
-5 -3 -10 -1 -10 4 0 6 -3 10 -7 9 -9 -1 -40 9 -65 23 -10 5 -25 9 -33 9 -8 0
-15 5 -15 11 0 5 -4 7 -10 4 -5 -3 -10 -2 -10 4 0 6 -7 8 -15 5 -8 -4 -15 -1
-15 7 0 7 -3 9 -7 6 -3 -4 -12 -2 -20 4 -7 6 -13 9 -13 5 0 -4 -13 0 -30 9
-16 9 -30 13 -30 9 0 -4 -6 -1 -13 5 -8 6 -17 8 -20 4 -4 -3 -7 -2 -7 4 0 5
-6 10 -12 11 -7 0 -23 3 -35 6 -13 3 -31 8 -40 10 -10 2 -43 11 -73 20 -30 8
-68 18 -85 21 -16 3 -40 8 -52 10 -111 23 -129 26 -258 40 -69 7 -335 22 -338
18z"/>
</g>
</svg>
